#VRML V2.0 utf8
# Mechanical preview only; manufacturer data and footprint are authoritative.
# Explicit tangent boxes approximate a 17 x 5.5 mm cylindrical helical spring.
DEF Copper Appearance {
  material Material {
    diffuseColor 0.72 0.42 0.08
    specularColor 0.95 0.72 0.25
    shininess 0.72
  }
}
DEF Anchor Appearance {
  material Material {
    diffuseColor 0.30 0.34 0.38
    specularColor 0.08 0.08 0.08
    transparency 0.25
  }
}
Transform {
  translation -7.44113 -0.25500 0.15833
  rotation 0.00000 -0.25882 -0.96593 1.42461
  children [ Shape { appearance USE Copper geometry Box { size 0.53368 0.22000 0.22000 } } ]
}
Transform {
  translation -7.36339 -0.69667 0.41333
  rotation 0.00000 -0.70711 -0.70711 1.42461
  children [ Shape { appearance USE Copper geometry Box { size 0.53368 0.22000 0.22000 } } ]
}
Transform {
  translation -7.28565 -0.95167 0.85500
  rotation 0.00000 -0.96593 -0.25882 1.42461
  children [ Shape { appearance USE Copper geometry Box { size 0.53368 0.22000 0.22000 } } ]
}
Transform {
  translation -7.20792 -0.95167 1.36500
  rotation 0.00000 -0.96593 0.25882 1.42461
  children [ Shape { appearance USE Copper geometry Box { size 0.53368 0.22000 0.22000 } } ]
}
Transform {
  translation -7.13018 -0.69667 1.80667
  rotation 0.00000 -0.70711 0.70711 1.42461
  children [ Shape { appearance USE Copper geometry Box { size 0.53368 0.22000 0.22000 } } ]
}
Transform {
  translation -7.05244 -0.25500 2.06167
  rotation 0.00000 -0.25882 0.96593 1.42461
  children [ Shape { appearance USE Copper geometry Box { size 0.53368 0.22000 0.22000 } } ]
}
Transform {
  translation -6.97470 0.25500 2.06167
  rotation 0.00000 0.25882 0.96593 1.42461
  children [ Shape { appearance USE Copper geometry Box { size 0.53368 0.22000 0.22000 } } ]
}
Transform {
  translation -6.89696 0.69667 1.80667
  rotation 0.00000 0.70711 0.70711 1.42461
  children [ Shape { appearance USE Copper geometry Box { size 0.53368 0.22000 0.22000 } } ]
}
Transform {
  translation -6.81923 0.95167 1.36500
  rotation 0.00000 0.96593 0.25882 1.42461
  children [ Shape { appearance USE Copper geometry Box { size 0.53368 0.22000 0.22000 } } ]
}
Transform {
  translation -6.74149 0.95167 0.85500
  rotation 0.00000 0.96593 -0.25882 1.42461
  children [ Shape { appearance USE Copper geometry Box { size 0.53368 0.22000 0.22000 } } ]
}
Transform {
  translation -6.66375 0.69667 0.41333
  rotation 0.00000 0.70711 -0.70711 1.42461
  children [ Shape { appearance USE Copper geometry Box { size 0.53368 0.22000 0.22000 } } ]
}
Transform {
  translation -6.58601 0.25500 0.15833
  rotation 0.00000 0.25882 -0.96593 1.42461
  children [ Shape { appearance USE Copper geometry Box { size 0.53368 0.22000 0.22000 } } ]
}
Transform {
  translation -6.50827 -0.25500 0.15833
  rotation 0.00000 -0.25882 -0.96593 1.42461
  children [ Shape { appearance USE Copper geometry Box { size 0.53368 0.22000 0.22000 } } ]
}
Transform {
  translation -6.43054 -0.69667 0.41333
  rotation 0.00000 -0.70711 -0.70711 1.42461
  children [ Shape { appearance USE Copper geometry Box { size 0.53368 0.22000 0.22000 } } ]
}
Transform {
  translation -6.35280 -0.95167 0.85500
  rotation 0.00000 -0.96593 -0.25882 1.42461
  children [ Shape { appearance USE Copper geometry Box { size 0.53368 0.22000 0.22000 } } ]
}
Transform {
  translation -6.27506 -0.95167 1.36500
  rotation 0.00000 -0.96593 0.25882 1.42461
  children [ Shape { appearance USE Copper geometry Box { size 0.53368 0.22000 0.22000 } } ]
}
Transform {
  translation -6.19732 -0.69667 1.80667
  rotation 0.00000 -0.70711 0.70711 1.42461
  children [ Shape { appearance USE Copper geometry Box { size 0.53368 0.22000 0.22000 } } ]
}
Transform {
  translation -6.11958 -0.25500 2.06167
  rotation 0.00000 -0.25882 0.96593 1.42461
  children [ Shape { appearance USE Copper geometry Box { size 0.53368 0.22000 0.22000 } } ]
}
Transform {
  translation -6.04185 0.25500 2.06167
  rotation 0.00000 0.25882 0.96593 1.42461
  children [ Shape { appearance USE Copper geometry Box { size 0.53368 0.22000 0.22000 } } ]
}
Transform {
  translation -5.96411 0.69667 1.80667
  rotation 0.00000 0.70711 0.70711 1.42461
  children [ Shape { appearance USE Copper geometry Box { size 0.53368 0.22000 0.22000 } } ]
}
Transform {
  translation -5.88637 0.95167 1.36500
  rotation 0.00000 0.96593 0.25882 1.42461
  children [ Shape { appearance USE Copper geometry Box { size 0.53368 0.22000 0.22000 } } ]
}
Transform {
  translation -5.80863 0.95167 0.85500
  rotation 0.00000 0.96593 -0.25882 1.42461
  children [ Shape { appearance USE Copper geometry Box { size 0.53368 0.22000 0.22000 } } ]
}
Transform {
  translation -5.73089 0.69667 0.41333
  rotation 0.00000 0.70711 -0.70711 1.42461
  children [ Shape { appearance USE Copper geometry Box { size 0.53368 0.22000 0.22000 } } ]
}
Transform {
  translation -5.65315 0.25500 0.15833
  rotation 0.00000 0.25882 -0.96593 1.42461
  children [ Shape { appearance USE Copper geometry Box { size 0.53368 0.22000 0.22000 } } ]
}
Transform {
  translation -5.57542 -0.25500 0.15833
  rotation 0.00000 -0.25882 -0.96593 1.42461
  children [ Shape { appearance USE Copper geometry Box { size 0.53368 0.22000 0.22000 } } ]
}
Transform {
  translation -5.49768 -0.69667 0.41333
  rotation 0.00000 -0.70711 -0.70711 1.42461
  children [ Shape { appearance USE Copper geometry Box { size 0.53368 0.22000 0.22000 } } ]
}
Transform {
  translation -5.41994 -0.95167 0.85500
  rotation 0.00000 -0.96593 -0.25882 1.42461
  children [ Shape { appearance USE Copper geometry Box { size 0.53368 0.22000 0.22000 } } ]
}
Transform {
  translation -5.34220 -0.95167 1.36500
  rotation 0.00000 -0.96593 0.25882 1.42461
  children [ Shape { appearance USE Copper geometry Box { size 0.53368 0.22000 0.22000 } } ]
}
Transform {
  translation -5.26446 -0.69667 1.80667
  rotation 0.00000 -0.70711 0.70711 1.42461
  children [ Shape { appearance USE Copper geometry Box { size 0.53368 0.22000 0.22000 } } ]
}
Transform {
  translation -5.18673 -0.25500 2.06167
  rotation 0.00000 -0.25882 0.96593 1.42461
  children [ Shape { appearance USE Copper geometry Box { size 0.53368 0.22000 0.22000 } } ]
}
Transform {
  translation -5.10899 0.25500 2.06167
  rotation 0.00000 0.25882 0.96593 1.42461
  children [ Shape { appearance USE Copper geometry Box { size 0.53368 0.22000 0.22000 } } ]
}
Transform {
  translation -5.03125 0.69667 1.80667
  rotation 0.00000 0.70711 0.70711 1.42461
  children [ Shape { appearance USE Copper geometry Box { size 0.53368 0.22000 0.22000 } } ]
}
Transform {
  translation -4.95351 0.95167 1.36500
  rotation 0.00000 0.96593 0.25882 1.42461
  children [ Shape { appearance USE Copper geometry Box { size 0.53368 0.22000 0.22000 } } ]
}
Transform {
  translation -4.87577 0.95167 0.85500
  rotation 0.00000 0.96593 -0.25882 1.42461
  children [ Shape { appearance USE Copper geometry Box { size 0.53368 0.22000 0.22000 } } ]
}
Transform {
  translation -4.79804 0.69667 0.41333
  rotation 0.00000 0.70711 -0.70711 1.42461
  children [ Shape { appearance USE Copper geometry Box { size 0.53368 0.22000 0.22000 } } ]
}
Transform {
  translation -4.72030 0.25500 0.15833
  rotation 0.00000 0.25882 -0.96593 1.42461
  children [ Shape { appearance USE Copper geometry Box { size 0.53368 0.22000 0.22000 } } ]
}
Transform {
  translation -4.64256 -0.25500 0.15833
  rotation 0.00000 -0.25882 -0.96593 1.42461
  children [ Shape { appearance USE Copper geometry Box { size 0.53368 0.22000 0.22000 } } ]
}
Transform {
  translation -4.56482 -0.69667 0.41333
  rotation 0.00000 -0.70711 -0.70711 1.42461
  children [ Shape { appearance USE Copper geometry Box { size 0.53368 0.22000 0.22000 } } ]
}
Transform {
  translation -4.48708 -0.95167 0.85500
  rotation 0.00000 -0.96593 -0.25882 1.42461
  children [ Shape { appearance USE Copper geometry Box { size 0.53368 0.22000 0.22000 } } ]
}
Transform {
  translation -4.40935 -0.95167 1.36500
  rotation 0.00000 -0.96593 0.25882 1.42461
  children [ Shape { appearance USE Copper geometry Box { size 0.53368 0.22000 0.22000 } } ]
}
Transform {
  translation -4.33161 -0.69667 1.80667
  rotation 0.00000 -0.70711 0.70711 1.42461
  children [ Shape { appearance USE Copper geometry Box { size 0.53368 0.22000 0.22000 } } ]
}
Transform {
  translation -4.25387 -0.25500 2.06167
  rotation 0.00000 -0.25882 0.96593 1.42461
  children [ Shape { appearance USE Copper geometry Box { size 0.53368 0.22000 0.22000 } } ]
}
Transform {
  translation -4.17613 0.25500 2.06167
  rotation 0.00000 0.25882 0.96593 1.42461
  children [ Shape { appearance USE Copper geometry Box { size 0.53368 0.22000 0.22000 } } ]
}
Transform {
  translation -4.09839 0.69667 1.80667
  rotation 0.00000 0.70711 0.70711 1.42461
  children [ Shape { appearance USE Copper geometry Box { size 0.53368 0.22000 0.22000 } } ]
}
Transform {
  translation -4.02065 0.95167 1.36500
  rotation 0.00000 0.96593 0.25882 1.42461
  children [ Shape { appearance USE Copper geometry Box { size 0.53368 0.22000 0.22000 } } ]
}
Transform {
  translation -3.94292 0.95167 0.85500
  rotation 0.00000 0.96593 -0.25882 1.42461
  children [ Shape { appearance USE Copper geometry Box { size 0.53368 0.22000 0.22000 } } ]
}
Transform {
  translation -3.86518 0.69667 0.41333
  rotation 0.00000 0.70711 -0.70711 1.42461
  children [ Shape { appearance USE Copper geometry Box { size 0.53368 0.22000 0.22000 } } ]
}
Transform {
  translation -3.78744 0.25500 0.15833
  rotation 0.00000 0.25882 -0.96593 1.42461
  children [ Shape { appearance USE Copper geometry Box { size 0.53368 0.22000 0.22000 } } ]
}
Transform {
  translation -3.70970 -0.25500 0.15833
  rotation 0.00000 -0.25882 -0.96593 1.42461
  children [ Shape { appearance USE Copper geometry Box { size 0.53368 0.22000 0.22000 } } ]
}
Transform {
  translation -3.63196 -0.69667 0.41333
  rotation 0.00000 -0.70711 -0.70711 1.42461
  children [ Shape { appearance USE Copper geometry Box { size 0.53368 0.22000 0.22000 } } ]
}
Transform {
  translation -3.55423 -0.95167 0.85500
  rotation 0.00000 -0.96593 -0.25882 1.42461
  children [ Shape { appearance USE Copper geometry Box { size 0.53368 0.22000 0.22000 } } ]
}
Transform {
  translation -3.47649 -0.95167 1.36500
  rotation 0.00000 -0.96593 0.25882 1.42461
  children [ Shape { appearance USE Copper geometry Box { size 0.53368 0.22000 0.22000 } } ]
}
Transform {
  translation -3.39875 -0.69667 1.80667
  rotation 0.00000 -0.70711 0.70711 1.42461
  children [ Shape { appearance USE Copper geometry Box { size 0.53368 0.22000 0.22000 } } ]
}
Transform {
  translation -3.32101 -0.25500 2.06167
  rotation 0.00000 -0.25882 0.96593 1.42461
  children [ Shape { appearance USE Copper geometry Box { size 0.53368 0.22000 0.22000 } } ]
}
Transform {
  translation -3.24327 0.25500 2.06167
  rotation 0.00000 0.25882 0.96593 1.42461
  children [ Shape { appearance USE Copper geometry Box { size 0.53368 0.22000 0.22000 } } ]
}
Transform {
  translation -3.16554 0.69667 1.80667
  rotation 0.00000 0.70711 0.70711 1.42461
  children [ Shape { appearance USE Copper geometry Box { size 0.53368 0.22000 0.22000 } } ]
}
Transform {
  translation -3.08780 0.95167 1.36500
  rotation 0.00000 0.96593 0.25882 1.42461
  children [ Shape { appearance USE Copper geometry Box { size 0.53368 0.22000 0.22000 } } ]
}
Transform {
  translation -3.01006 0.95167 0.85500
  rotation 0.00000 0.96593 -0.25882 1.42461
  children [ Shape { appearance USE Copper geometry Box { size 0.53368 0.22000 0.22000 } } ]
}
Transform {
  translation -2.93232 0.69667 0.41333
  rotation 0.00000 0.70711 -0.70711 1.42461
  children [ Shape { appearance USE Copper geometry Box { size 0.53368 0.22000 0.22000 } } ]
}
Transform {
  translation -2.85458 0.25500 0.15833
  rotation 0.00000 0.25882 -0.96593 1.42461
  children [ Shape { appearance USE Copper geometry Box { size 0.53368 0.22000 0.22000 } } ]
}
Transform {
  translation -2.77685 -0.25500 0.15833
  rotation 0.00000 -0.25882 -0.96593 1.42461
  children [ Shape { appearance USE Copper geometry Box { size 0.53368 0.22000 0.22000 } } ]
}
Transform {
  translation -2.69911 -0.69667 0.41333
  rotation 0.00000 -0.70711 -0.70711 1.42461
  children [ Shape { appearance USE Copper geometry Box { size 0.53368 0.22000 0.22000 } } ]
}
Transform {
  translation -2.62137 -0.95167 0.85500
  rotation 0.00000 -0.96593 -0.25882 1.42461
  children [ Shape { appearance USE Copper geometry Box { size 0.53368 0.22000 0.22000 } } ]
}
Transform {
  translation -2.54363 -0.95167 1.36500
  rotation 0.00000 -0.96593 0.25882 1.42461
  children [ Shape { appearance USE Copper geometry Box { size 0.53368 0.22000 0.22000 } } ]
}
Transform {
  translation -2.46589 -0.69667 1.80667
  rotation 0.00000 -0.70711 0.70711 1.42461
  children [ Shape { appearance USE Copper geometry Box { size 0.53368 0.22000 0.22000 } } ]
}
Transform {
  translation -2.38815 -0.25500 2.06167
  rotation 0.00000 -0.25882 0.96593 1.42461
  children [ Shape { appearance USE Copper geometry Box { size 0.53368 0.22000 0.22000 } } ]
}
Transform {
  translation -2.31042 0.25500 2.06167
  rotation 0.00000 0.25882 0.96593 1.42461
  children [ Shape { appearance USE Copper geometry Box { size 0.53368 0.22000 0.22000 } } ]
}
Transform {
  translation -2.23268 0.69667 1.80667
  rotation 0.00000 0.70711 0.70711 1.42461
  children [ Shape { appearance USE Copper geometry Box { size 0.53368 0.22000 0.22000 } } ]
}
Transform {
  translation -2.15494 0.95167 1.36500
  rotation 0.00000 0.96593 0.25882 1.42461
  children [ Shape { appearance USE Copper geometry Box { size 0.53368 0.22000 0.22000 } } ]
}
Transform {
  translation -2.07720 0.95167 0.85500
  rotation 0.00000 0.96593 -0.25882 1.42461
  children [ Shape { appearance USE Copper geometry Box { size 0.53368 0.22000 0.22000 } } ]
}
Transform {
  translation -1.99946 0.69667 0.41333
  rotation 0.00000 0.70711 -0.70711 1.42461
  children [ Shape { appearance USE Copper geometry Box { size 0.53368 0.22000 0.22000 } } ]
}
Transform {
  translation -1.92173 0.25500 0.15833
  rotation 0.00000 0.25882 -0.96593 1.42461
  children [ Shape { appearance USE Copper geometry Box { size 0.53368 0.22000 0.22000 } } ]
}
Transform {
  translation -1.84399 -0.25500 0.15833
  rotation 0.00000 -0.25882 -0.96593 1.42461
  children [ Shape { appearance USE Copper geometry Box { size 0.53368 0.22000 0.22000 } } ]
}
Transform {
  translation -1.76625 -0.69667 0.41333
  rotation 0.00000 -0.70711 -0.70711 1.42461
  children [ Shape { appearance USE Copper geometry Box { size 0.53368 0.22000 0.22000 } } ]
}
Transform {
  translation -1.68851 -0.95167 0.85500
  rotation 0.00000 -0.96593 -0.25882 1.42461
  children [ Shape { appearance USE Copper geometry Box { size 0.53368 0.22000 0.22000 } } ]
}
Transform {
  translation -1.61077 -0.95167 1.36500
  rotation 0.00000 -0.96593 0.25882 1.42461
  children [ Shape { appearance USE Copper geometry Box { size 0.53368 0.22000 0.22000 } } ]
}
Transform {
  translation -1.53304 -0.69667 1.80667
  rotation 0.00000 -0.70711 0.70711 1.42461
  children [ Shape { appearance USE Copper geometry Box { size 0.53368 0.22000 0.22000 } } ]
}
Transform {
  translation -1.45530 -0.25500 2.06167
  rotation 0.00000 -0.25882 0.96593 1.42461
  children [ Shape { appearance USE Copper geometry Box { size 0.53368 0.22000 0.22000 } } ]
}
Transform {
  translation -1.37756 0.25500 2.06167
  rotation 0.00000 0.25882 0.96593 1.42461
  children [ Shape { appearance USE Copper geometry Box { size 0.53368 0.22000 0.22000 } } ]
}
Transform {
  translation -1.29982 0.69667 1.80667
  rotation 0.00000 0.70711 0.70711 1.42461
  children [ Shape { appearance USE Copper geometry Box { size 0.53368 0.22000 0.22000 } } ]
}
Transform {
  translation -1.22208 0.95167 1.36500
  rotation 0.00000 0.96593 0.25882 1.42461
  children [ Shape { appearance USE Copper geometry Box { size 0.53368 0.22000 0.22000 } } ]
}
Transform {
  translation -1.14435 0.95167 0.85500
  rotation 0.00000 0.96593 -0.25882 1.42461
  children [ Shape { appearance USE Copper geometry Box { size 0.53368 0.22000 0.22000 } } ]
}
Transform {
  translation -1.06661 0.69667 0.41333
  rotation 0.00000 0.70711 -0.70711 1.42461
  children [ Shape { appearance USE Copper geometry Box { size 0.53368 0.22000 0.22000 } } ]
}
Transform {
  translation -0.98887 0.25500 0.15833
  rotation 0.00000 0.25882 -0.96593 1.42461
  children [ Shape { appearance USE Copper geometry Box { size 0.53368 0.22000 0.22000 } } ]
}
Transform {
  translation -0.47500 -0.00000 0.09000
  rotation 0.00000 0.00000 1.00000 0.00000
  children [ Shape { appearance USE Copper geometry Box { size 0.95000 0.22000 0.22000 } } ]
}
Transform {
  # Small nonconductive adhesive bridge at the free end; assembly aid only.
  translation -7.24500 -1.11000 1.11000
  children [ Shape { appearance USE Anchor geometry Box { size 0.55000 0.30000 0.45000 } } ]
}
