#VRML V2.0 utf8
# Mechanical preview only. KiCad WRL coordinates use 0.1 inch units.
# Approximate 9.3 x 5.0 mm TSAL6200 body lying parallel to the PCB.
Transform {
  translation 1.929134 0 0.984252
  rotation 0 0 1 0
  children [
    Shape {
      appearance Appearance {
        material Material {
          diffuseColor 0.16 0.03 0.22
          emissiveColor 0.015 0.002 0.025
          specularColor 0.40 0.18 0.50
          transparency 0.12
          shininess 0.65
        }
      }
      geometry Box { size 3.661417 1.968504 1.968504 }
    }
  ]
}
